<svg xmlns="http://www.w3.org/2000/svg" width="1944" height="1088.64" viewBox="0 931.68 1944 1088.64" enable-background="new 0 931.68 1944 1088.64"><g><circle cx="673.92" cy="1778.4" r="34.56"/><circle cx="1477.44" cy="1709.28" r="34.56"/><circle cx="1140.48" cy="1458.72" r="34.56"/><circle cx="457.92" cy="1458.72" r="34.56"/><circle cx="1088.64" cy="1173.6" r="34.56"/><circle cx="786.24" cy="1510.56" r="34.56"/><circle cx="1140.48" cy="1709.28" r="34.56"/><circle cx="561.6" cy="1208.16" r="34.56"/><path d="M671.328 1790.496l-222.912-330.912 107.136-260.064 553.824-36.288-309.312 344.736 139.104 77.76 201.312-138.24 362.88 270.432h-365.472l-198.72-111.456-267.84 184.032zm-203.904-332.64l208.224 308.448 247.104-169.344-150.336-84.672 295.488-329.184-500.256 33.696-100.224 241.056zm675.648 242.784h308.448l-311.04-231.552-184.896 126.144 187.488 105.408z"/></g></svg>