<svg xmlns="http://www.w3.org/2000/svg" width="1944" height="1088.64" viewBox="0 931.68 1944 1088.64" enable-background="new 0 931.68 1944 1088.64"><g><circle cx="1373.76" cy="1501.92" r="34.56"/><circle cx="1105.92" cy="1778.4" r="34.56"/><circle cx="924.48" cy="1614.24" r="34.56"/><circle cx="1226.88" cy="1337.76" r="34.56"/><circle cx="777.6" cy="1320.48" r="34.56"/><circle cx="457.92" cy="1173.6" r="34.56"/><circle cx="1477.44" cy="1285.92" r="34.56"/><circle cx="561.6" cy="1631.52" r="34.56"/><path d="M1111.968 1784.448l-14.688-8.64 88.128-322.272-391.392-119.232 138.24 275.616-7.776 12.96-362.88 17.28-8.64-6.912-103.68-457.92 9.504-10.368 1019.52 112.32.864 17.28-245.376 50.976-26.784 96.768 169.344 51.84 3.456 14.688-267.84 275.616zm90.72-325.728l-79.488 289.44 234.144-241.92-154.656-47.52zm-733.536-275.616l99.36 439.776 342.144-16.416-140.832-282.528 10.368-12.096 410.4 125.28 27.648-101.952 6.912-6.048 196.992-40.608-952.992-105.408z"/></g></svg>