<svg xmlns="http://www.w3.org/2000/svg" width="1944" height="1088.64" viewBox="0 931.68 1944 1088.64" enable-background="new 0 931.68 1944 1088.64"><g><circle cx="1373.76" cy="1432.8" r="34.56"/><circle cx="1123.2" cy="1596.96" r="34.56"/><circle cx="561.6" cy="1380.96" r="34.56"/><circle cx="751.68" cy="1216.8" r="34.56"/><circle cx="1062.72" cy="1173.6" r="34.56"/><circle cx="457.92" cy="1571.04" r="34.56"/><circle cx="1477.44" cy="1285.92" r="34.56"/><circle cx="665.28" cy="1778.4" r="34.56"/><path d="M669.6 1786.176l-10.368-.864-207.36-207.36 1.728-12.96 206.496-135.648-101.088-38.88-2.592-14.688 190.08-164.16 8.64-1.728 156.384 54.432 146.88-96.768 12.96 6.048 21.6 153.792 191.808 66.528 188.352-114.048 11.232 12.096-103.68 146.88-9.504 3.456-84.672-29.376-166.752 101.088 12.096 82.944-11.232 9.504-93.312-35.424L669.6 1786.176zm-197.856-213.408l195.264 195.264 339.552-206.496-326.592-126.144-208.224 137.376zm573.696-14.688l66.528 25.92-8.64-61.344-57.888 35.424zm-348.192-133.92l327.456 126.144 76.032-45.792-23.328-165.024-164.16-57.024-216 141.696zm399.168-78.624l21.6 148.608 148.608-89.856-170.208-58.752zm209.088 54.432l64.8 22.464 76.032-108-140.832 85.536zm-727.488-21.6l99.36 38.016 215.136-141.696-139.104-48.384-175.392 152.064zm353.376-108l143.424 50.112-19.008-131.328-124.416 81.216z"/></g></svg>